<?xml version="1.0" encoding="UTF-8"?>
<svg width="20px" height="27px" viewBox="0 0 20 27" version="1.1" xmlns="http://www.w3.org/2000/svg" xmlns:xlink="http://www.w3.org/1999/xlink">
    <!-- Generator: Sketch 50.2 (55047) - http://www.bohemiancoding.com/sketch -->
    <title>map-marker-alt@2x</title>
    <desc>Created with Sketch.</desc>
    <defs></defs>
    <g id="My-Communities" stroke="none" stroke-width="1" fill="none" fill-rule="evenodd">
        <g transform="translate(-574.000000, -5768.000000)" fill="#7ED321" id="map-marker-alt">
            <path d="M582.734354,5793.74218 C581.854148,5792.45573 580.720036,5790.83073 579.332019,5788.86719 C577.639314,5786.4297 576.52213,5784.78778 575.980464,5783.94142 C575.20182,5782.72268 574.677081,5781.69859 574.406249,5780.86916 C574.135417,5780.03974 574,5779.08336 574,5778.00003 C574,5776.23962 574.440103,5774.61462 575.320309,5773.12504 C576.200515,5771.63546 577.385409,5770.45057 578.874988,5769.57036 C580.364568,5768.69016 581.989564,5768.25005 583.749977,5768.25005 C585.510389,5768.25005 587.135386,5768.69016 588.624965,5769.57036 C590.114545,5770.45057 591.299438,5771.63546 592.179644,5773.12504 C593.05985,5774.61462 593.499954,5776.23962 593.499954,5778.00003 C593.499954,5779.08336 593.364537,5780.03974 593.093704,5780.86916 C592.822872,5781.69859 592.298133,5782.72268 591.519489,5783.94142 C590.977824,5784.78778 589.860639,5786.4297 588.167935,5788.86719 L584.765599,5793.74218 C584.52862,5794.08072 584.19008,5794.24999 583.749977,5794.24999 C583.309873,5794.24999 582.971333,5794.08072 582.734354,5793.74218 Z M583.749977,5782.06252 C584.867162,5782.06252 585.823539,5781.66474 586.619111,5780.86916 C587.414682,5780.07359 587.812467,5779.11722 587.812467,5778.00003 C587.812467,5776.88285 587.414682,5775.92647 586.619111,5775.1309 C585.823539,5774.33533 584.867162,5773.93754 583.749977,5773.93754 C582.632792,5773.93754 581.676414,5774.33533 580.880843,5775.1309 C580.085272,5775.92647 579.687486,5776.88285 579.687486,5778.00003 C579.687486,5779.11722 580.085272,5780.07359 580.880843,5780.86916 C581.676414,5781.66474 582.632792,5782.06252 583.749977,5782.06252 Z"></path>
        </g>
    </g>
</svg>