<?xml version="1.0" encoding="UTF-8"?>
<svg width="20px" height="27px" viewBox="0 0 20 27" version="1.1" xmlns="http://www.w3.org/2000/svg" xmlns:xlink="http://www.w3.org/1999/xlink">
    <!-- Generator: Sketch 50.2 (55047) - http://www.bohemiancoding.com/sketch -->
    <title>map-marker-alt@2x</title>
    <desc>Created with Sketch.</desc>
    <defs></defs>
    <g id="My-Communities" stroke="none" stroke-width="1" fill="none" fill-rule="evenodd">
        <g transform="translate(-1042.000000, -5768.000000)" fill="#9013FE" id="map-marker-alt">
            <path d="M1050.73435,5793.74218 C1049.85415,5792.45573 1048.72004,5790.83073 1047.33202,5788.86719 C1045.63931,5786.4297 1044.52213,5784.78778 1043.98046,5783.94142 C1043.20182,5782.72268 1042.67708,5781.69859 1042.40625,5780.86916 C1042.13542,5780.03974 1042,5779.08336 1042,5778.00003 C1042,5776.23962 1042.4401,5774.61462 1043.32031,5773.12504 C1044.20052,5771.63546 1045.38541,5770.45057 1046.87499,5769.57036 C1048.36457,5768.69016 1049.98956,5768.25005 1051.74998,5768.25005 C1053.51039,5768.25005 1055.13539,5768.69016 1056.62497,5769.57036 C1058.11454,5770.45057 1059.29944,5771.63546 1060.17964,5773.12504 C1061.05985,5774.61462 1061.49995,5776.23962 1061.49995,5778.00003 C1061.49995,5779.08336 1061.36454,5780.03974 1061.0937,5780.86916 C1060.82287,5781.69859 1060.29813,5782.72268 1059.51949,5783.94142 C1058.97782,5784.78778 1057.86064,5786.4297 1056.16793,5788.86719 L1052.7656,5793.74218 C1052.52862,5794.08072 1052.19008,5794.24999 1051.74998,5794.24999 C1051.30987,5794.24999 1050.97133,5794.08072 1050.73435,5793.74218 Z M1051.74998,5782.06252 C1052.86716,5782.06252 1053.82354,5781.66474 1054.61911,5780.86916 C1055.41468,5780.07359 1055.81247,5779.11722 1055.81247,5778.00003 C1055.81247,5776.88285 1055.41468,5775.92647 1054.61911,5775.1309 C1053.82354,5774.33533 1052.86716,5773.93754 1051.74998,5773.93754 C1050.63279,5773.93754 1049.67641,5774.33533 1048.88084,5775.1309 C1048.08527,5775.92647 1047.68749,5776.88285 1047.68749,5778.00003 C1047.68749,5779.11722 1048.08527,5780.07359 1048.88084,5780.86916 C1049.67641,5781.66474 1050.63279,5782.06252 1051.74998,5782.06252 Z"></path>
        </g>
    </g>
</svg>