<?xml version="1.0" encoding="UTF-8"?>
<svg width="20px" height="27px" viewBox="0 0 20 27" version="1.1" xmlns="http://www.w3.org/2000/svg" xmlns:xlink="http://www.w3.org/1999/xlink">
    <!-- Generator: Sketch 50.2 (55047) - http://www.bohemiancoding.com/sketch -->
    <title>map-marker-alt@2x</title>
    <desc>Created with Sketch.</desc>
    <defs></defs>
    <g id="My-Communities" stroke="none" stroke-width="1" fill="none" fill-rule="evenodd">
        <g transform="translate(-370.000000, -5769.000000)" fill="#D0021B" id="map-marker-alt">
            <path d="M378.734354,5794.74218 C377.854148,5793.45573 376.720036,5791.83073 375.332019,5789.86719 C373.639314,5787.4297 372.52213,5785.78778 371.980464,5784.94142 C371.20182,5783.72268 370.677081,5782.69859 370.406249,5781.86916 C370.135417,5781.03974 370,5780.08336 370,5779.00003 C370,5777.23962 370.440103,5775.61462 371.320309,5774.12504 C372.200515,5772.63546 373.385409,5771.45057 374.874988,5770.57036 C376.364568,5769.69016 377.989564,5769.25005 379.749977,5769.25005 C381.510389,5769.25005 383.135386,5769.69016 384.624965,5770.57036 C386.114545,5771.45057 387.299438,5772.63546 388.179644,5774.12504 C389.05985,5775.61462 389.499954,5777.23962 389.499954,5779.00003 C389.499954,5780.08336 389.364537,5781.03974 389.093704,5781.86916 C388.822872,5782.69859 388.298133,5783.72268 387.519489,5784.94142 C386.977824,5785.78778 385.860639,5787.4297 384.167935,5789.86719 L380.765599,5794.74218 C380.52862,5795.08072 380.19008,5795.24999 379.749977,5795.24999 C379.309873,5795.24999 378.971333,5795.08072 378.734354,5794.74218 Z M379.749977,5783.06252 C380.867162,5783.06252 381.823539,5782.66474 382.619111,5781.86916 C383.414682,5781.07359 383.812467,5780.11722 383.812467,5779.00003 C383.812467,5777.88285 383.414682,5776.92647 382.619111,5776.1309 C381.823539,5775.33533 380.867162,5774.93754 379.749977,5774.93754 C378.632792,5774.93754 377.676414,5775.33533 376.880843,5776.1309 C376.085272,5776.92647 375.687486,5777.88285 375.687486,5779.00003 C375.687486,5780.11722 376.085272,5781.07359 376.880843,5781.86916 C377.676414,5782.66474 378.632792,5783.06252 379.749977,5783.06252 Z"></path>
        </g>
    </g>
</svg>