<?xml version="1.0" encoding="UTF-8"?>
<svg width="20px" height="27px" viewBox="0 0 20 27" version="1.1" xmlns="http://www.w3.org/2000/svg" xmlns:xlink="http://www.w3.org/1999/xlink">
    <!-- Generator: Sketch 50.2 (55047) - http://www.bohemiancoding.com/sketch -->
    <title>map-marker-alt@2x</title>
    <desc>Created with Sketch.</desc>
    <defs></defs>
    <g id="My-Communities" stroke="none" stroke-width="1" fill="none" fill-rule="evenodd">
        <g transform="translate(-804.000000, -5767.000000)" fill="#F5A623" id="map-marker-alt">
            <path d="M812.734354,5792.74218 C811.854148,5791.45573 810.720036,5789.83073 809.332019,5787.86719 C807.639314,5785.4297 806.52213,5783.78778 805.980464,5782.94142 C805.20182,5781.72268 804.677081,5780.69859 804.406249,5779.86916 C804.135417,5779.03974 804,5778.08336 804,5777.00003 C804,5775.23962 804.440103,5773.61462 805.320309,5772.12504 C806.200515,5770.63546 807.385409,5769.45057 808.874988,5768.57036 C810.364568,5767.69016 811.989564,5767.25005 813.749977,5767.25005 C815.510389,5767.25005 817.135386,5767.69016 818.624965,5768.57036 C820.114545,5769.45057 821.299438,5770.63546 822.179644,5772.12504 C823.05985,5773.61462 823.499954,5775.23962 823.499954,5777.00003 C823.499954,5778.08336 823.364537,5779.03974 823.093704,5779.86916 C822.822872,5780.69859 822.298133,5781.72268 821.519489,5782.94142 C820.977824,5783.78778 819.860639,5785.4297 818.167935,5787.86719 L814.765599,5792.74218 C814.52862,5793.08072 814.19008,5793.24999 813.749977,5793.24999 C813.309873,5793.24999 812.971333,5793.08072 812.734354,5792.74218 Z M813.749977,5781.06252 C814.867162,5781.06252 815.823539,5780.66474 816.619111,5779.86916 C817.414682,5779.07359 817.812467,5778.11722 817.812467,5777.00003 C817.812467,5775.88285 817.414682,5774.92647 816.619111,5774.1309 C815.823539,5773.33533 814.867162,5772.93754 813.749977,5772.93754 C812.632792,5772.93754 811.676414,5773.33533 810.880843,5774.1309 C810.085272,5774.92647 809.687486,5775.88285 809.687486,5777.00003 C809.687486,5778.11722 810.085272,5779.07359 810.880843,5779.86916 C811.676414,5780.66474 812.632792,5781.06252 813.749977,5781.06252 Z"></path>
        </g>
    </g>
</svg>