<?xml version="1.0" encoding="UTF-8"?>
<svg width="132px" height="133px" viewBox="0 0 132 133" version="1.1" xmlns="http://www.w3.org/2000/svg" xmlns:xlink="http://www.w3.org/1999/xlink">
    <!-- Generator: Sketch 50.2 (55047) - http://www.bohemiancoding.com/sketch -->
    <title>testimonial-default-image@2x</title>
    <desc>Created with Sketch.</desc>
    <defs></defs>
    <g id="Homepage" stroke="none" stroke-width="1" fill="none" fill-rule="evenodd">
        <g id="testimonial-default-image" fill-rule="nonzero">
            <g id="&quot;" fill="#484E5D">
                <rect id="Rectangle-8" x="0.5" y="0.5" width="131" height="132"></rect>
            </g>
            <path d="M61.8423947,39.1814276 C62.8233205,38.4019742 64.1966165,40.3506077 63.2156908,40.9351978 C53.6026185,47.9502787 48.1094343,55.160223 46.7361383,63.9290741 C46.1475828,66.8520245 46.343768,69.1903848 47.1285086,70.7492916 C48.3056195,69.3852481 50.0712858,68.6057947 52.2293224,68.6057947 C57.5263215,68.6057947 60.2729135,72.1133351 60.0767284,76.7900557 C59.6843581,81.271913 56.3492106,84 50.6598412,84 C43.0086204,84 38.496362,77.3746458 40.4582135,66.6571611 C42.420065,56.3294031 50.6598412,47.1708253 61.8423947,39.1814276 Z M90.2892413,39.1814276 C91.2701671,38.4019742 92.6434631,40.3506077 91.6625374,40.9351978 C82.0494651,47.9502787 76.5562809,55.160223 75.1829849,63.9290741 C74.5944294,66.8520245 74.7906146,69.1903848 75.5753552,70.7492916 C76.7524661,69.3852481 78.5181324,68.6057947 80.676169,68.6057947 C85.9731681,68.6057947 88.7197601,72.1133351 88.523575,76.7900557 C88.1312047,81.271913 84.7960572,84 79.1066878,84 C71.455467,84 66.9432086,77.3746458 68.9050601,66.6571611 C70.8669116,56.3294031 79.1066878,47.1708253 90.2892413,39.1814276 Z" id="“" fill="#C39E4D"></path>
        </g>
    </g>
</svg>