<?xml version="1.0" encoding="UTF-8"?> <!-- Generator: Adobe Illustrator 23.0.0, SVG Export Plug-In . SVG Version: 6.00 Build 0) --> <svg xmlns="http://www.w3.org/2000/svg" xmlns:xlink="http://www.w3.org/1999/xlink" id="Layer_1" x="0px" y="0px" viewBox="0 0 76 40" style="enable-background:new 0 0 76 40;" xml:space="preserve"> <style type="text/css"> .st0{fill-rule:evenodd;clip-rule:evenodd;fill:#484E5D;} .st1{fill:#484E5D;} </style> <g> <path id="Fill-51" class="st0" d="M12,16.7h-0.6c-0.5-1.5-1.6-3.5-3.4-3.5c-1.3,0-1.9,0.3-1.9,4.2v3.4c0,2.9,0.9,3.4,2.1,3.4 c1.9,0,3.1-1.7,3.4-3.5h0.5C11.9,23.5,9.8,25,7.1,25c-3.9,0-6.6-2.5-6.6-6.4c0-3.6,2.8-6.2,6.4-6.2c0.9,0,1.5,0.2,2.3,0.5 c0.3,0.1,0.5,0.3,0.9,0.3c0.2,0,0.4-0.1,0.5-0.2l0.9-0.5H12V16.7z"></path> <path id="Fill-53" class="st0" d="M16.1,24.7v-0.5h0.4c0.8,0,1-0.9,1-1.7V14c-0.3-0.4-0.6-0.9-1.2-0.9h-0.3v-0.5h6.6l4.7,6.5V14 c0-0.5-0.5-0.9-1.2-0.9h-0.4v-0.5h3.6v0.5H29c-0.9,0-0.9,0.7-0.9,2.1v9.5h-2.9L18.1,15v7.6c0,0.8,0.2,1.7,1,1.7h0.6v0.5H16.1z"></path> <path id="Fill-55" class="st0" d="M33.3,24.7v-0.5h1.3V13.1h-1.3v-0.5h11.7l0.1,4.3h-0.6c-0.5-1.9-1.7-3.8-3.6-3.8h-1.1v5.3h0.3 c0.5,0,1.8-0.6,1.9-2.4h0.6v5.3h-0.6c-0.2-1.9-1.4-2.5-1.9-2.5h-0.3v5.4h1.2c1.3,0,2.7-1,3.7-4.1h0.5l-0.1,4.6H33.3z"></path> <path class="st1" d="M36.6,6.2c0,0,23.1,1.9,35,9.8s-7.1,13.7-7.1,13.7s-11.7,3.6-27.2,4C21.8,34.2,3.5,31.8,0.5,31 c0,0,38.8,4.5,58.4-6.1C58.9,24.9,77,15.8,36.6,6.2z"></path> </g> </svg> 