<?xml version="1.0" encoding="UTF-8"?> <svg xmlns="http://www.w3.org/2000/svg" id="Layer_1" data-name="Layer 1" viewBox="0 0 1263.32 311.65"><defs><style>.cls-1{fill:#fff;}</style></defs><title>REMAXPRO_PrimaryLogo_White</title><path class="cls-1" d="M91,44.09v-.57c0-9.72-3.09-17.81-9-23.39-6.64-6.33-16.57-9.68-28.72-9.68H13.51V111.09H36.06V78.29H49l19.29,32.8H94.11L71.69,73.79C80.58,69.93,91,61.65,91,44.09Zm-22.7.43v.14c0,9.12-6.21,14.56-16.62,14.56H36.06V30H51.19C62.35,30,68.25,35,68.25,44.52ZM409.3,9.88,371.45,111.09h22.76l7.62-21.67h35.43L445,111.09h23.35L430.54,9.88Zm21.09,60.46H408.71l10.91-30.8ZM534.24,59.63,564.4,10.45H539.31l-17.83,31.9-17.54-31.9H478.25l29.86,49.46L476.9,111.09H502l19-33.76,18.89,33.76H565.6Zm-396.87,32V70.17h40.38V50.66H137.37V30h45.92V10.45H115V111.09h42.38l10.3-19.5ZM330.63,10.45,307.85,43.07,284.77,10.45h-.26L261.35,54.32v56.77h21.95V48.77L307,79.66l.12.2h1l24-31.37v62.6h22.1V10.45Z"></path><polygon class="cls-1" points="233.6 10.45 180.48 111.09 207.86 111.09 261 10.45 233.6 10.45"></polygon><path class="cls-1" d="M13.51,149.94H53.66c23.45,0,37.63,13.9,37.63,34v.28c0,22.74-17.69,34.54-39.73,34.54H35.13v29.48H13.51Zm38.75,49.55c10.81,0,17.13-6.45,17.13-14.88v-.28c0-9.68-6.74-14.88-17.55-14.88H35.13v30Z"></path><path class="cls-1" d="M108.35,149.94h44.92c12.5,0,22.19,3.51,28.64,10,5.48,5.47,8.43,13.19,8.43,22.46v.28c0,15.86-8.57,25.83-21.06,30.46l24,35.1H168l-21-31.45H130v31.45H108.35Zm43.52,47.73c10.53,0,16.57-5.62,16.57-13.9v-.28c0-9.27-6.46-14-17-14H130v28.22Z"></path><path class="cls-1" d="M205.46,199.35v-.28c0-27.93,22-50.82,52.36-50.82s52.09,22.61,52.09,50.54v.28c0,27.94-22,50.82-52.37,50.82S205.46,227.29,205.46,199.35Zm81.84,0v-.28c0-16.84-12.35-30.88-29.76-30.88s-29.48,13.76-29.48,30.6v.28c0,16.85,12.36,30.89,29.76,30.89S287.3,216.2,287.3,199.35Z"></path><path class="cls-1" d="M330.31,149.94h74.82v19.65h-53.2v20.92h46.89v19.65H351.93v38.05H330.31Z"></path><path class="cls-1" d="M423.17,149.94h74.12v19.23H444.64v19.94H491v19.23H444.64V229H498v19.24H423.17Z"></path><path class="cls-1" d="M512.19,233.89,525,218.59c8.84,7.3,18.11,11.93,29.34,11.93,8.84,0,14.17-3.51,14.17-9.27V221c0-5.47-3.36-8.28-19.79-12.49-19.79-5-32.57-10.53-32.57-30v-.28c0-17.83,14.32-29.63,34.39-29.63,14.33,0,26.54,4.5,36.51,12.5l-11.23,16.28c-8.71-6-17.27-9.68-25.56-9.68s-12.63,3.79-12.63,8.56v.28c0,6.46,4.21,8.56,21.2,12.92,19.93,5.19,31.16,12.35,31.16,29.48v.28c0,19.51-14.88,30.46-36.07,30.46A62.52,62.52,0,0,1,512.19,233.89Z"></path><path class="cls-1" d="M602.68,233.89l12.77-15.3c8.85,7.3,18.11,11.93,29.34,11.93,8.84,0,14.18-3.51,14.18-9.27V221c0-5.47-3.37-8.28-19.79-12.49-19.8-5-32.57-10.53-32.57-30v-.28c0-17.83,14.31-29.63,34.39-29.63,14.32,0,26.53,4.5,36.5,12.5l-11.23,16.28c-8.7-6-17.27-9.68-25.55-9.68s-12.63,3.79-12.63,8.56v.28c0,6.46,4.21,8.56,21.19,12.92,19.94,5.19,31.17,12.35,31.17,29.48v.28c0,19.51-14.88,30.46-36.08,30.46A62.51,62.51,0,0,1,602.68,233.89Z"></path><path class="cls-1" d="M701.26,149.94h21.62v98.27H701.26Z"></path><path class="cls-1" d="M743.67,154.43v-.28c0-27.93,22-50.82,52.36-50.82s52.08,22.61,52.08,50.54v.28c0,27.94-22,50.82-52.36,50.82S743.67,182.37,743.67,154.43Zm81.84,0v-.28c0-16.84-12.35-30.88-29.76-30.88s-29.48,13.76-29.48,30.6v.28C766.27,171,778.62,185,796,185S825.51,171.28,825.51,154.43Z"></path><path class="cls-1" d="M868.52,149.94h19.93l46,60.5v-60.5h21.33v98.27H937.44l-47.59-62.47v62.47H868.52Z"></path><path class="cls-1" d="M1013.37,149.24h19.93l42.12,99h-22.6l-9-22h-41.55l-9,22h-22Zm22.74,57.84-13-31.87L1010,207.08Z"></path><path class="cls-1" d="M1090.93,149.94h21.61v78.61h49v19.66h-70.61Z"></path><path class="cls-1" d="M1174.37,233.89l12.78-15.3c8.84,7.3,18.11,11.93,29.34,11.93,8.84,0,14.18-3.51,14.18-9.27V221c0-5.47-3.37-8.28-19.79-12.49-19.8-5-32.58-10.53-32.58-30v-.28c0-17.83,14.32-29.63,34.4-29.63,14.32,0,26.53,4.5,36.5,12.5L1238,177.31c-8.7-6-17.27-9.68-25.55-9.68s-12.64,3.79-12.64,8.56v.28c0,6.46,4.22,8.56,21.2,12.92,19.94,5.19,31.17,12.35,31.17,29.48v.28c0,19.51-14.88,30.46-36.08,30.46A62.55,62.55,0,0,1,1174.37,233.89Z"></path><path class="cls-1" d="M848,226.59v21.62H743.67V226.59Z"></path><path class="cls-1" d="M13.51,272.13h2.42v22.5H13.51Z"></path><path class="cls-1" d="M21.44,277.88h2.31v2.73a5.44,5.44,0,0,1,4.95-3.05c3.41,0,5.47,2.35,5.47,6.11v11H31.86V284.31c0-3-1.42-4.66-3.86-4.66s-4.25,1.93-4.25,4.79v10.19H21.44Z"></path><path class="cls-1" d="M38.11,286.43v-.22c0-5.08,3.28-8.65,7.46-8.65a7.1,7.1,0,0,1,5.27,2.28l-1.38,1.74a5.41,5.41,0,0,0-3.92-1.9c-2.8,0-5,2.64-5,6.53v.16c0,3.95,2.31,6.49,5.14,6.49a5.37,5.37,0,0,0,3.93-1.93l1.35,1.55A6.92,6.92,0,0,1,45.5,295C41.29,295,38.11,291.51,38.11,286.43Z"></path><path class="cls-1" d="M54.78,291.32h2.89v3.31H54.78Z"></path><path class="cls-1" d="M61.36,297.43c1.58-.58,2.19-1.45,2.09-2.8H62.26v-3.31h2.9v2.83c0,2.54-1.06,3.76-3.41,4.37Z"></path><path class="cls-1" d="M79,272.13h7.62a7.68,7.68,0,0,1,5.56,1.92,5.12,5.12,0,0,1,1.48,3.7v.07a5.35,5.35,0,0,1-3.7,5.24c2.64.77,4.66,2.34,4.66,5.4v.09c0,3.83-3.12,6.08-7.84,6.08H79Zm12.22,5.94c0-2.31-1.74-3.76-4.73-3.76H81.37v7.91h4.85c3,0,5-1.48,5-4.08Zm-4.63,6.27H81.37v8.11h5.47c3.24,0,5.3-1.48,5.3-4.06v-.06C92.14,285.82,90.18,284.34,86.55,284.34Z"></path><path class="cls-1" d="M99,277.88h2.32v3.7a5.9,5.9,0,0,1,5.75-3.92v2.5H107c-3.11,0-5.62,2.19-5.62,6.5v8H99Z"></path><path class="cls-1" d="M109.19,286.4v-.22c0-4.89,3.15-8.62,7.46-8.62s7.43,3.7,7.43,8.58v.2c0,4.88-3.15,8.64-7.46,8.64S109.19,291.29,109.19,286.4Zm12.54,0v-.16c0-3.76-2.25-6.56-5.11-6.56s-5.05,2.8-5.05,6.53v.16c0,3.76,2.22,6.56,5.08,6.56S121.73,290.07,121.73,286.37Z"></path><path class="cls-1" d="M128.19,271.42h2.31V287l7.43-9.13h2.79l-5.88,7,6.11,9.71h-2.73l-5-7.88L130.5,290v4.63h-2.31Z"></path><path class="cls-1" d="M142.66,286.4v-.16c0-5.11,3-8.68,6.91-8.68,4.21,0,6.72,3.6,6.72,8.65,0,.22,0,.67,0,1H145c.26,3.7,2.54,5.76,5.18,5.76a5.89,5.89,0,0,0,4.34-1.93l1.32,1.48a7.59,7.59,0,0,1-5.76,2.5C146,295,142.66,291.71,142.66,286.4Zm11.31-1c-.16-3.18-1.67-5.79-4.4-5.79-2.48,0-4.34,2.29-4.57,5.79Z"></path><path class="cls-1" d="M160.33,277.88h2.31v3.7a5.92,5.92,0,0,1,5.76-3.92v2.5h-.13c-3.12,0-5.63,2.19-5.63,6.5v8h-2.31Z"></path><path class="cls-1" d="M170.66,289.78v-.13c0-3.44,2.47-5.4,6.17-5.4a14,14,0,0,1,4.31.67v-1c0-2.71-1.58-4.15-4.28-4.15a9.18,9.18,0,0,0-4.28,1.12l-.73-1.89a11.39,11.39,0,0,1,5.27-1.35,6.35,6.35,0,0,1,4.69,1.67,6.21,6.21,0,0,1,1.61,4.53v10.77h-2.28v-2.44A5.8,5.8,0,0,1,176,295,5.11,5.11,0,0,1,170.66,289.78Zm10.51-1v-2.09a12,12,0,0,0-4-.67c-2.67,0-4.15,1.38-4.15,3.5v.1a3.36,3.36,0,0,0,3.57,3.41A4.36,4.36,0,0,0,181.17,288.81Z"></path><path class="cls-1" d="M188,297.72l.94-1.87a9.94,9.94,0,0,0,5.4,1.64c3.15,0,5.11-1.67,5.11-5V290a6.37,6.37,0,0,1-5.53,3.44c-3.41,0-6.59-2.83-6.59-7.87v-.13c0-5.05,3.21-7.91,6.62-7.91a6.37,6.37,0,0,1,5.5,3.31v-3h2.32v14.53a7,7,0,0,1-1.84,5.18,7.61,7.61,0,0,1-5.56,1.93A11.92,11.92,0,0,1,188,297.72Zm11.51-12.16v-.09c0-3.6-2.47-5.82-5-5.82s-4.76,2.15-4.76,5.82v.06c0,3.63,2.15,5.85,4.76,5.85S199.5,289.13,199.5,285.56Z"></path><path class="cls-1" d="M205.91,286.4v-.16c0-5.11,3-8.68,6.91-8.68,4.22,0,6.72,3.6,6.72,8.65,0,.22,0,.67,0,1H208.26c.26,3.7,2.54,5.76,5.17,5.76a5.9,5.9,0,0,0,4.35-1.93l1.31,1.48a7.57,7.57,0,0,1-5.75,2.5C209.26,295,205.91,291.71,205.91,286.4Zm11.32-1c-.16-3.18-1.67-5.79-4.41-5.79-2.47,0-4.34,2.29-4.56,5.79Z"></path><path class="cls-1" d="M249,272.13h2.41v22.5H249Z"></path><path class="cls-1" d="M256.91,277.88h2.31v2.73a5.41,5.41,0,0,1,4.95-3.05c3.41,0,5.47,2.35,5.47,6.11v11h-2.32V284.31c0-3-1.41-4.66-3.86-4.66s-4.24,1.93-4.24,4.79v10.19h-2.31Z"></path><path class="cls-1" d="M273.67,286.43v-.32c0-5.56,3.27-8.55,6.68-8.55a6.23,6.23,0,0,1,5.44,3.44v-9.58h2.31v23.21h-2.31v-3.21c-1.13,1.89-2.8,3.53-5.44,3.53C276.94,295,273.67,292,273.67,286.43Zm12.21,0v-.29c0-3.95-2.41-6.46-5.05-6.46s-4.78,2.35-4.78,6.46v.26c0,4.08,2.18,6.49,4.78,6.49S285.88,290.35,285.88,286.4Z"></path><path class="cls-1" d="M292.26,286.4v-.16c0-5.11,3-8.68,6.91-8.68,4.21,0,6.72,3.6,6.72,8.65,0,.22,0,.67,0,1H294.61c.25,3.7,2.54,5.76,5.17,5.76a5.88,5.88,0,0,0,4.34-1.93l1.32,1.48a7.58,7.58,0,0,1-5.75,2.5C295.6,295,292.26,291.71,292.26,286.4Zm11.32-1c-.17-3.18-1.68-5.79-4.41-5.79-2.48,0-4.34,2.29-4.56,5.79Z"></path><path class="cls-1" d="M309.92,277.88h2.31v3.22c1.13-1.9,2.8-3.54,5.44-3.54,3.4,0,6.68,3,6.68,8.52v.32c0,5.56-3.28,8.55-6.68,8.55a6.23,6.23,0,0,1-5.44-3.44v7.94h-2.31ZM322,286.4v-.26c0-4.08-2.19-6.49-4.76-6.49s-5.08,2.54-5.08,6.46v.32c0,3.92,2.44,6.43,5.08,6.43S322,290.52,322,286.4Z"></path><path class="cls-1" d="M327.75,286.4v-.16c0-5.11,3-8.68,6.91-8.68,4.21,0,6.72,3.6,6.72,8.65,0,.22,0,.67,0,1H330.09c.26,3.7,2.54,5.76,5.18,5.76a5.89,5.89,0,0,0,4.34-1.93l1.32,1.48a7.59,7.59,0,0,1-5.76,2.5C331.09,295,327.75,291.71,327.75,286.4Zm11.31-1c-.16-3.18-1.67-5.79-4.4-5.79-2.48,0-4.34,2.29-4.57,5.79Z"></path><path class="cls-1" d="M345.42,277.88h2.31v2.73a5.44,5.44,0,0,1,5-3.05c3.4,0,5.46,2.35,5.46,6.11v11h-2.31V284.31c0-3-1.42-4.66-3.86-4.66s-4.25,1.93-4.25,4.79v10.19h-2.31Z"></path><path class="cls-1" d="M362.18,286.43v-.32c0-5.56,3.28-8.55,6.69-8.55A6.21,6.21,0,0,1,374.3,281v-9.58h2.31v23.21H374.3v-3.21c-1.13,1.89-2.8,3.53-5.43,3.53C365.46,295,362.18,292,362.18,286.43Zm12.22,0v-.29c0-3.95-2.41-6.46-5-6.46s-4.79,2.35-4.79,6.46v.26c0,4.08,2.18,6.49,4.79,6.49S374.4,290.35,374.4,286.4Z"></path><path class="cls-1" d="M380.77,286.4v-.16c0-5.11,3-8.68,6.91-8.68,4.22,0,6.72,3.6,6.72,8.65,0,.22,0,.67,0,1H383.12c.26,3.7,2.54,5.76,5.18,5.76a5.85,5.85,0,0,0,4.33-1.93l1.32,1.48a7.57,7.57,0,0,1-5.75,2.5C384.11,295,380.77,291.71,380.77,286.4Zm11.32-1c-.16-3.18-1.67-5.79-4.41-5.79-2.47,0-4.34,2.29-4.56,5.79Z"></path><path class="cls-1" d="M398.43,277.88h2.32v2.73a5.41,5.41,0,0,1,4.95-3.05c3.4,0,5.46,2.35,5.46,6.11v11h-2.31V284.31c0-3-1.42-4.66-3.86-4.66s-4.24,1.93-4.24,4.79v10.19h-2.32Z"></path><path class="cls-1" d="M416.39,290.74v-10.8h-2v-2.06h2V273h2.32v4.89h4.37v2.06h-4.37v10.41a2.13,2.13,0,0,0,2.41,2.42,5,5,0,0,0,2-.45v2a5.7,5.7,0,0,1-2.51.58C418.19,294.89,416.39,293.73,416.39,290.74Z"></path><path class="cls-1" d="M426.83,271.42h2.32v23.21h-2.32Z"></path><path class="cls-1" d="M444.71,277.88h2.48l-5.95,17c-1.19,3.47-2.64,4.66-4.89,4.66a6.34,6.34,0,0,1-3-.77l.71-1.93a4.36,4.36,0,0,0,2.18.61c1.26,0,2.06-.7,2.9-2.86l-6.43-16.75h2.5l5,13.79Z"></path><path class="cls-1" d="M459,283.54v-.26c0-6.62,4-11.51,9.71-11.51s9.65,4.86,9.65,11.45v.26c0,6.62-4,11.5-9.68,11.5S459,290.13,459,283.54Zm16.88,0v-.23c0-5.43-3.05-9.29-7.2-9.29s-7.17,3.83-7.17,9.26v.23c0,5.43,3,9.29,7.2,9.29S475.91,288.94,475.91,283.51Z"></path><path class="cls-1" d="M481.54,277.88H484l3.69,13.34,3.83-13.37h2l3.82,13.37L501,277.88h2.35l-5,16.88h-2.09l-3.8-13.05-3.82,13.05h-2.09Z"></path><path class="cls-1" d="M507,277.88h2.32v2.73a5.41,5.41,0,0,1,4.95-3.05c3.4,0,5.46,2.35,5.46,6.11v11h-2.31V284.31c0-3-1.42-4.66-3.86-4.66s-4.24,1.93-4.24,4.79v10.19H507Z"></path><path class="cls-1" d="M523.73,286.4v-.16c0-5.11,3-8.68,6.91-8.68,4.21,0,6.72,3.6,6.72,8.65a8.29,8.29,0,0,1,0,1H526.07c.26,3.7,2.54,5.76,5.18,5.76a5.89,5.89,0,0,0,4.34-1.93l1.32,1.48a7.59,7.59,0,0,1-5.76,2.5C527.07,295,523.73,291.71,523.73,286.4Zm11.31-1c-.16-3.18-1.67-5.79-4.4-5.79-2.48,0-4.34,2.29-4.57,5.79Z"></path><path class="cls-1" d="M540.61,286.43v-.32c0-5.56,3.28-8.55,6.69-8.55a6.2,6.2,0,0,1,5.43,3.44v-9.58h2.32v23.21h-2.32v-3.21c-1.12,1.89-2.8,3.53-5.43,3.53C543.89,295,540.61,292,540.61,286.43Zm12.22,0v-.29c0-3.95-2.41-6.46-5.05-6.46S543,282,543,286.11v.26c0,4.08,2.19,6.49,4.79,6.49S552.83,290.35,552.83,286.4Z"></path><path class="cls-1" d="M574,284.41h-5.79v-2.19H574V276.4h2.25v5.82H582v2.19h-5.78v5.82H574Z"></path><path class="cls-1" d="M594.65,283.54v-.26c0-6.62,4-11.51,9.71-11.51s9.65,4.86,9.65,11.45v.26c0,6.62-4,11.5-9.68,11.5S594.65,290.13,594.65,283.54Zm16.88,0v-.23c0-5.43-3-9.29-7.2-9.29s-7.17,3.83-7.17,9.26v.23c0,5.43,3.05,9.29,7.2,9.29S611.53,288.94,611.53,283.51Z"></path><path class="cls-1" d="M618.68,277.88H621v3.22c1.12-1.9,2.79-3.54,5.43-3.54,3.41,0,6.69,3,6.69,8.52v.32c0,5.56-3.28,8.55-6.69,8.55a6.2,6.2,0,0,1-5.43-3.44v7.94h-2.32Zm12.06,8.52v-.26c0-4.08-2.19-6.49-4.76-6.49s-5.08,2.54-5.08,6.46v.32c0,3.92,2.44,6.43,5.08,6.43S630.74,290.52,630.74,286.4Z"></path><path class="cls-1" d="M636.51,286.4v-.16c0-5.11,3-8.68,6.91-8.68,4.21,0,6.72,3.6,6.72,8.65,0,.22,0,.67,0,1H638.86c.25,3.7,2.54,5.76,5.17,5.76a5.86,5.86,0,0,0,4.34-1.93l1.32,1.48a7.57,7.57,0,0,1-5.75,2.5C639.85,295,636.51,291.71,636.51,286.4Zm11.32-1c-.16-3.18-1.67-5.79-4.41-5.79-2.47,0-4.34,2.29-4.56,5.79Z"></path><path class="cls-1" d="M654.18,277.88h2.32v3.7a5.91,5.91,0,0,1,5.75-3.92v2.5h-.13c-3.11,0-5.62,2.19-5.62,6.5v8h-2.32Z"></path><path class="cls-1" d="M664.51,289.78v-.13c0-3.44,2.48-5.4,6.17-5.4a13.93,13.93,0,0,1,4.31.67v-1c0-2.71-1.57-4.15-4.27-4.15a9.14,9.14,0,0,0-4.28,1.12L665.7,279a11.46,11.46,0,0,1,5.27-1.35,6.37,6.37,0,0,1,4.7,1.67,6.21,6.21,0,0,1,1.6,4.53v10.77H675v-2.44a5.78,5.78,0,0,1-5.11,2.79A5.11,5.11,0,0,1,664.51,289.78Zm10.51-1v-2.09a12,12,0,0,0-4-.67c-2.67,0-4.14,1.38-4.14,3.5v.1a3.35,3.35,0,0,0,3.56,3.41A4.35,4.35,0,0,0,675,288.81Z"></path><path class="cls-1" d="M682.4,290.74v-10.8h-2v-2.06h2V273h2.32v4.89h4.37v2.06h-4.37v10.41a2.13,2.13,0,0,0,2.41,2.42,4.93,4.93,0,0,0,2-.45v2a5.7,5.7,0,0,1-2.51.58C684.2,294.89,682.4,293.73,682.4,290.74Z"></path><path class="cls-1" d="M691.56,286.4v-.16c0-5.11,3-8.68,6.91-8.68,4.21,0,6.72,3.6,6.72,8.65,0,.22,0,.67,0,1H693.9c.26,3.7,2.54,5.76,5.18,5.76a5.89,5.89,0,0,0,4.34-1.93l1.32,1.48A7.59,7.59,0,0,1,699,295C694.9,295,691.56,291.71,691.56,286.4Zm11.31-1c-.16-3.18-1.67-5.79-4.4-5.79-2.48,0-4.34,2.29-4.57,5.79Z"></path><path class="cls-1" d="M708.44,286.43v-.32c0-5.56,3.28-8.55,6.69-8.55a6.2,6.2,0,0,1,5.43,3.44v-9.58h2.32v23.21h-2.32v-3.21c-1.12,1.89-2.79,3.53-5.43,3.53C711.72,295,708.44,292,708.44,286.43Zm12.22,0v-.29c0-3.95-2.41-6.46-5-6.46s-4.79,2.35-4.79,6.46v.26c0,4.08,2.19,6.49,4.79,6.49S720.66,290.35,720.66,286.4Z"></path><circle class="cls-1" cx="234.26" cy="285.37" r="1.67"></circle></svg> 