<?xml version="1.0" encoding="utf-8"?>
<!-- Generator: Adobe Illustrator 22.1.0, SVG Export Plug-In . SVG Version: 6.00 Build 0)  -->
<svg version="1.1" id="Layer_1" xmlns="http://www.w3.org/2000/svg" xmlns:xlink="http://www.w3.org/1999/xlink" x="0px" y="0px"
	 viewBox="0 0 211 94" style="enable-background:new 0 0 211 94;" xml:space="preserve">
<metadata><?xpacket begin="﻿" id="W5M0MpCehiHzreSzNTczkc9d"?>
<x:xmpmeta xmlns:x="adobe:ns:meta/" x:xmptk="Adobe XMP Core 5.6-c143 79.161356, 2017/09/07-01:11:22        ">
   <rdf:RDF xmlns:rdf="http://www.w3.org/1999/02/22-rdf-syntax-ns#">
      <rdf:Description rdf:about=""/>
   </rdf:RDF>
</x:xmpmeta>
                                                                                                    
                                                                                                    
                                                                                                    
                                                                                                    
                                                                                                    
                                                                                                    
                                                                                                    
                                                                                                    
                                                                                                    
                                                                                                    
                                                                                                    
                                                                                                    
                                                                                                    
                                                                                                    
                                                                                                    
                                                                                                    
                                                                                                    
                                                                                                    
                                                                                                    
                                                                                                    
                           
<?xpacket end="w"?></metadata>
<style type="text/css">
	.st0{fill:#0773BB;}
</style>
<g>
	<g>
		<path class="st0" d="M37.6,8.2C23.3,12.4,12,23.7,7.8,38L37.6,8.2z"/>
		<path class="st0" d="M15.5,40.3H7.2C6.4,43.6,6,46.9,6,50.4c0,10.3,3.6,19.8,9.5,27.3V40.3z"/>
		<path class="st0" d="M34.7,67.5c-0.1,0.1-0.3,1.1-0.2,1.7c0.1,0.6-0.6,3.2-0.6,3.2s-0.7,4.1-0.7,4.7c0,0.6-0.5,2.6-0.5,2.8
			c0,0.2,0.1,1.9,0.1,1.9s-0.9-1-1.2-2c-0.3-1-0.8-2.7-0.9-4.1c-0.1-1.3-0.8-6.6-0.8-6.6s0.9-0.6,0.8-0.9c-0.2-0.4,0.6-4.9,0.6-4.9
			l0.9-4.2c0,0,1.5,3.2,2.1,4.4c0.6,1.3,0.8,2,0.8,2.6S34.8,67.4,34.7,67.5 M23.5,39.1l-0.4-1l0.7-1.2c0-0.1,0.1-0.2,0.2-0.3
			l-0.2,0.3C23.5,37.6,23.5,39.1,23.5,39.1 M40.4,82.2c-0.5,0.1-1.7-0.3-2.5-0.8c-0.8-0.5-0.9-1.8-0.9-2.1c0-0.3-0.1-1.3-0.1-1.3
			s0-0.5,0.3-0.8c0.3-0.3,0.1-0.6,0.1-1c0-0.4,1.3-4.3,1.5-5.2c0.3-1,0.7-3.2,0.7-3.2s0.3-0.2,0.6-1.5c0.2-1.3-0.9-4.2-1.9-7.4
			c-1-3.2-1.2-4.4-1.2-4.6s-0.3-0.2-0.3-0.4c0-0.2-0.3-0.3-0.2-0.5c0.1-0.1-0.1-0.4-0.1-0.4s-0.1-0.1-0.1-0.4c0-0.3-0.4-0.6-0.4-0.6
			l-0.2-0.6h0.2c0,0,0.2,0,0-1.7c-0.1-1.7-0.7-4.4-0.7-5.6c0-1.2,0.6-1.6,0.8-2.3c0.2-0.7,0.2-2-0.1-3.1c-0.3-1.1-0.9-3.8-1.3-4.2
			C34,34,32.5,34.2,33,33.7c0.4-0.4,0.5-0.8,0.9-1.4c0.4-0.6,0.4-1.1,0.4-3c0-1.9-0.3-2.9-0.9-4.1s-2.5-1.5-2.5-1.5
			c-0.3,0-0.7,0.1-0.7,0.1s-1.3,0.1-2.2,1c-0.9,0.9-1.3,4.5-1.5,6.1c-0.2,1.6,0.4,2.6,0.4,2.6s-1.4,0.5-2.1,1
			c-0.7,0.5-1.7,1.7-2.1,2.8c-0.3,1-1.8,1.9-2.9,2.9c-1.2,1-2.1,2.9-2.1,4.2c0,1.2,3.8,6,3.8,6l3.9,0.5c0,0-0.5,1.9-0.5,2.9
			c0,1,0.6,2.2,0.6,2.5c0,0.3,0.3,0.6,0.3,0.9s0.4,0.8,0.4,0.8s0,0.6,0,1.1c0,0.5,0.4,0.5,0.4,0.5L26.7,62v1.9c0,0.4,0,1.5,0,1.6
			s0,0.5-0.2,0.7c-0.2,0.2-0.1,0.7-0.1,0.7s0.1,0.4-0.2,0.7c-0.3,0.3,0.3,1.3,0.3,1.3L26,69c0,0-0.2,0.7,0,1.2
			c0.2,0.5,1.2,6,1.6,6.9c0.4,0.9,0.6,1.5,0.6,1.5s0,0.6-0.1,1.2C28,80.2,28,81.4,28,81.4l0.1,1.7l0.5,0.2l0.8,0l0.2-0.6
			c0,0-0.1,0.5,0.6,0.8c0.7,0.3,2.8,0.4,3.4,0.3c0.6-0.1,0.3-0.7,0.3-0.7H35l-0.2-1.2h0.2c0,0,1.1,0.8,1.6,1.3
			c0.5,0.5,2.1,0.3,3,0.3c0.9,0,1.5-0.3,1.5-0.7C41.2,82.4,40.8,82,40.4,82.2"/>
		<path class="st0" d="M23.1,36.9l0.2-0.3C23.2,36.7,23.2,36.8,23.1,36.9"/>
		<path class="st0" d="M205,79.4c0,0.5-32.2,0.9-87.6,0.9c-55.4,0-100.3-0.4-100.3-0.9c0-0.5,44.9-0.9,100.3-0.9
			C172.8,78.5,205,78.9,205,79.4"/>
		<path class="st0" d="M50,6.4c-3.1,0-6.1,0.3-9,0.9l33,33h-10v38.5h19.8c6.4-7.7,10.3-17.5,10.3-28.3C94.1,26.1,74.4,6.4,50,6.4"/>
		<path class="st0" d="M54.9,65.9L54.9,65.9c0.1,0,0.3,0.1,0.2,0.2C55,66.1,54.9,66,54.9,65.9 M38.9,44.9c0,0.7,0.3,1.5,0.4,2.2
			c0,0.4,0,0.7,0,0.9c0,0.2,0.2,0.3,0.2,0.5c0.1,0.4,0.1,0.9,0.2,1.4c0.1,0.5,0.2,0.9,0.3,1.3c0.1,0.6,0.1,1,0.4,1.4
			c0.1,0.2,0.2,0.4,0.4,0.6c0.1,0.2,0.3,0.3,0.4,0.5c0.1,0.2,0.1,0.5,0.3,0.5c0.3,1.3,0.4,2.7,0.6,4.2c0,0.3,0.2,0.7,0.2,1
			c0,0.2,0,0.4,0,0.6c0,0.4,0.1,0.9,0.2,1.4c0.1,1.3,0.5,2.6,0.7,3.9c0.3,1.8,0.5,3.5,1,5.1c-0.2,0.5-0.4,1.1-0.6,1.5
			c0.2,0.2,0.3,0.2,0.2,0.4c0.2,0.1,0.3,0.1,0.5-0.1c-0.4,2.2,0.2,4.8,0.3,7c0.1,1.2-0.7,3.2,0.9,2.8c-0.3,0.3-0.7,0.6-0.9,1
			c-0.2,0-0.3-0.1-0.4,0c-0.1,0.1,0,0.2,0,0.3c-0.2,0.1-0.3,0.2-0.6,0.1c-0.1,0.1,0,0.1,0,0.2c-0.4,0-0.4,0.3-0.5,0.5
			c-0.4-0.1-0.6,0.3-1,0.4c-0.1,0-0.3,0-0.4,0.1c-0.1,0-0.2,0.1-0.3,0.2c-0.2,0.1-0.5,0.1-0.6,0.2c-0.1,0.1-0.4,0.5-0.4,0.7
			c0,0.2,0.3,0.7,0.5,0.8c0.4,0.3,1.2,0.3,2,0.3c1.4,0,3.4-0.6,4.7-0.6c0.8,0,2.6,0.1,3-0.3c0.3-0.3,0-0.8,0-1.2
			c0-0.2,0.3-0.1,0.2-0.4c0-0.2-0.2-0.3-0.2-0.4c0-0.1,0.1-0.3,0.1-0.4c0-0.3-0.2-0.7-0.2-1.1c0-0.3,0.1-0.6,0.1-0.8
			c0-0.3-0.4-0.5-0.5-0.8c-0.1-0.2,0-0.4,0-0.6c0-0.3-0.1-0.7-0.2-1.1c-0.1-0.3-0.3-0.7-0.3-0.9c0-0.2,0.1-0.4,0.1-0.6
			c0-0.5,0-1.1,0-1.6c0-0.2,0.1-0.5,0.1-0.7c0-0.6-0.2-1.1-0.3-1.6c0.1-0.5,0.1-1.1,0.1-1.7c0-0.2-0.1-0.5-0.1-0.7
			c0-0.3,0.3-0.9,0.1-1.4c-0.1-0.3-0.6-0.4-0.6-0.8c0-0.1,0.1-0.2,0.2-0.3c0.2-0.5,0-1,0-1.5c0-0.4,0.2-1,0.2-1.6
			c0-0.7-0.1-1.3-0.2-2c0-0.2,0-0.5,0-0.8c0-0.2-0.1-0.4-0.1-0.6c0-0.4,0.3-0.8,0.3-1.2c0.4,1,0.6,2,0.9,3.1c0.1,0.4,0.2,0.7,0.3,1
			c0.1,1.1,0.1,2.2,0.2,3.3c0.1,1,0.4,2,0.5,3c0.2,1.5,0.7,2.8,0.9,4.4c0.1,0.8,0.2,1.3,0.2,2.2c0,0.7,0,1.4,0.1,2.1
			c0.1,0.7,0.2,1.3,0.3,2c0,0.6,0,1.1,0.2,1.6l0,0c0,0.5-0.2,0.9-0.1,1.4c0,0.2,0.2,0.3,0.2,0.4c0,0.1-0.1,0.2,0,0.3
			c0,0.1,0.2,0.1,0.2,0.3c-0.6,1.5,1.4,1.4,2.1,2.1c0.1,1,1.4,1.4,2.7,1.4c0.5,0,1.2,0,1.4-0.2c0.2-0.1,0.4-0.4,0.4-0.6
			c0-0.3-0.4-1.2-0.5-1.4c-0.2-0.3-0.6-0.6-0.8-0.8c-0.2-0.2-0.2-0.5-0.5-0.5c0-0.1,0.2-0.2,0.1-0.3C58,86,58,86,57.8,86
			c0.1-0.2,0-0.4-0.1-0.5c0.6-0.7,0.7-1.6,0.5-2.6c-0.1-0.2-0.2-0.4-0.2-0.5c-0.1-0.4,0.1-0.9,0.2-1.4c0-0.3,0-0.7,0-1.1
			c0-0.4,0.1-0.7,0.1-1c0-0.5-0.3-1-0.4-1.6c-0.1-0.6-0.3-1.1-0.4-1.6c-0.1-0.4-0.1-0.8-0.2-1.1c0-0.1-0.2-0.2-0.2-0.4
			c-0.1-0.3,0-0.7,0-1c0-0.4-0.1-0.8-0.2-1.2c-0.1-0.3-0.3-0.5-0.3-0.9c0-0.6,0-1-0.1-1.5c-0.1-0.4-0.4-1-0.4-1.5
			c0-0.5,0.2-1,0.2-1.4c0.1-1.9-0.1-3.7-0.2-5.5c-0.1-1-0.2-2-0.2-3.1c-0.1-1.5-0.7-2.9-0.5-4.6c-0.2-0.3-0.1-0.7,0-1.1
			c0.2-0.5,0.5-1.1,0.7-1.7c0.1-0.3,0.2-0.6,0.3-0.9c0.1-0.3,0.3-0.5,0.4-0.7c0.1-0.3,0.1-0.7,0.2-1.1c0.3-1.2,0.9-2.4,0.9-4
			c0-1.1-0.1-2.3-0.2-3.4c-0.1-1.1-0.2-2.2-0.4-3.3c-0.2-1-0.5-2-0.8-2.9c-0.4-1.3-1.1-2.7-2.2-3.3c-0.2-0.1,0,0.1,0.1,0.1
			c-1.1-0.9-3.2-1.1-4.4-2c-0.1,0-0.2,0.1-0.3,0c-0.5-0.5-0.9-1.1-1.4-1.6c0-0.4,0-0.7,0-1.1c0.6-0.4,1.2-1.3,0.9-2.1
			c-0.3,0-0.3-0.1-0.5,0c0.4-1.3,0.4-2.6-0.2-3.5c-0.8-0.3-1.1-1-1.9-1.2c-0.1,0,0-0.1,0.1-0.1c-0.2,0-0.3,0-0.4-0.2
			c-0.2,0.1-0.2,0-0.4,0c-0.4,0.1-0.5,0.3-0.9,0.3c-0.3,0.5-0.8,0.8-1.3,1.1c-0.3,0.3-0.7,0.9-0.8,1.4c-0.2,0.6,0,1.3,0,2.1
			c-0.1,0-0.3-0.2-0.4,0c-0.1,0.2-0.3,0.4-0.2,0.7c0,0.1,0.2,0.3,0.3,0.5c0.2,0.4,0.2,0.9,0.7,1c0.1,1,0.5,1.4,0.7,2.3
			c0.1,0.3,0.2,0.6,0.2,0.8c0,0.5-0.5,0.9-0.6,1.4c-0.2,0.2-0.8,0.2-1,0.5c-0.1,0.1-0.1,0.3-0.2,0.4c-0.3,0.4-0.7,0.7-1,1.1
			c-0.3,0.4-0.7,0.7-0.9,1.2c-0.1,0.3-0.2,0.8-0.3,1.2c-0.2,0.8-0.2,1.4-0.2,2.3c0,0.6-0.1,1.2-0.1,1.9c0,1.3,0,2.7-0.1,4
			C39.1,43.7,38.9,44.3,38.9,44.9"/>
		<polygon class="st0" points="116.5,16.8 112.2,26.2 112.2,31.7 108.5,31.7 108.5,26.2 104.3,16.8 108.3,16.8 110.5,22.3 
			112.7,16.8 		"/>
		<path class="st0" d="M121.1,24.2c0,1.1,0.4,2,1.1,2.8c0.8,0.9,1.7,1.3,2.8,1.3c1,0,1.8-0.4,2.6-1.1c0.8-0.8,1.3-1.8,1.3-3
			c0-1.1-0.4-2.1-1.1-2.8c-0.7-0.7-1.6-1.1-2.8-1.1c-1,0-1.8,0.3-2.5,0.8C121.6,21.8,121.1,22.8,121.1,24.2 M117.4,24.1
			c0-1.2,0.3-2.4,0.9-3.5c0.6-1.2,1.5-2.2,2.6-2.9c1.2-0.8,2.6-1.2,4.2-1.2c2.2,0,4,0.7,5.4,2.2c1.5,1.5,2.2,3.3,2.2,5.4
			c0,2.1-0.7,3.8-2.1,5.3c-1.5,1.6-3.3,2.4-5.6,2.4c-2.1,0-4-0.8-5.4-2.3C118.1,28.2,117.4,26.3,117.4,24.1"/>
		<path class="st0" d="M135.4,26.1v-9.3h3.7V26c0,1,0.1,1.6,0.4,2c0.3,0.3,0.7,0.5,1.3,0.5c1.3,0,1.9-0.8,1.9-2.5v-9.2h3.6v9.3
			c0,1.7-0.5,3.1-1.4,4.1c-1,1.1-2.4,1.6-4.1,1.6c-2,0-3.4-0.5-4.3-1.6C135.8,29.3,135.4,28,135.4,26.1"/>
		<polygon class="st0" points="157.9,20.3 155.1,20.3 155.1,31.7 151.5,31.7 151.5,20.3 148.7,20.3 148.7,16.8 157.9,16.8 		"/>
		<polygon class="st0" points="171,16.8 171,31.7 167.3,31.7 167.3,26 163.6,26 163.6,31.7 160,31.7 160,16.8 163.6,16.8 
			163.6,22.5 167.3,22.5 167.3,16.8 		"/>
		<polygon class="st0" points="116.5,49.7 114.2,41.4 112,49.7 108.6,49.7 104.6,34.8 108.5,34.8 110.5,43.3 112.6,34.8 115.9,34.8 
			118,43.3 120,34.8 123.9,34.8 119.9,49.7 		"/>
		<rect x="125.7" y="34.8" class="st0" width="3.6" height="14.9"/>
		<polygon class="st0" points="140.9,38.3 138.1,38.3 138.1,49.7 134.5,49.7 134.5,38.3 131.7,38.3 131.7,34.8 140.9,34.8 		"/>
		<polygon class="st0" points="154,34.8 154,49.7 150.3,49.7 150.3,44 146.6,44 146.6,49.7 143,49.7 143,34.8 146.6,34.8 
			146.6,40.5 150.3,40.5 150.3,34.8 		"/>
		<path class="st0" d="M160.5,42.2c0,1.1,0.4,2,1.1,2.8c0.8,0.9,1.7,1.3,2.8,1.3c1,0,1.8-0.4,2.6-1.1c0.8-0.8,1.3-1.8,1.3-3
			c0-1.1-0.4-2.1-1.1-2.8c-0.7-0.7-1.6-1.1-2.8-1.1c-1,0-1.8,0.3-2.5,0.8C161,39.8,160.5,40.8,160.5,42.2 M156.8,42.1
			c0-1.2,0.3-2.4,0.9-3.5c0.6-1.2,1.5-2.2,2.6-2.9c1.2-0.8,2.6-1.2,4.2-1.2c2.2,0,4,0.7,5.4,2.2c1.5,1.5,2.2,3.3,2.2,5.4
			c0,2.1-0.7,3.8-2.1,5.3c-1.5,1.6-3.3,2.4-5.6,2.4c-2.1,0-4-0.8-5.4-2.3C157.5,46.2,156.8,44.3,156.8,42.1"/>
		<path class="st0" d="M174.8,44.1v-9.3h3.7V44c0,1,0.1,1.6,0.4,2c0.3,0.3,0.7,0.5,1.3,0.5c1.2,0,1.9-0.8,1.9-2.5v-9.2h3.6v9.3
			c0,1.7-0.5,3.1-1.4,4.1c-1,1.1-2.4,1.6-4.1,1.6c-2,0-3.4-0.5-4.3-1.6C175.2,47.3,174.8,46,174.8,44.1"/>
		<polygon class="st0" points="197.3,38.3 194.5,38.3 194.5,49.7 190.9,49.7 190.9,38.3 188.1,38.3 188.1,34.8 197.3,34.8 		"/>
		<path class="st0" d="M105.5,63.1v-0.3h3.5c0,0.7,0.1,1.2,0.4,1.5c0.2,0.3,0.6,0.4,1,0.4c0.4,0,0.7-0.1,0.9-0.3
			c0.3-0.2,0.5-0.5,0.5-1c0-0.4-0.1-0.7-0.2-0.9c-0.2-0.3-0.7-0.6-1.3-0.9c-1.2-0.5-1.8-0.8-2-0.9c-0.7-0.4-1.3-0.9-1.8-1.5
			c-0.2-0.3-0.4-0.7-0.5-1c-0.1-0.4-0.2-0.8-0.2-1.3c0-1.2,0.4-2.2,1.2-3c0.9-1,2.2-1.5,3.8-1.5c1.3,0,2.3,0.3,3.1,1
			c1,0.8,1.4,2,1.4,3.6H112c0-0.4-0.1-0.7-0.3-1c-0.3-0.3-0.6-0.5-1-0.5c-0.3,0-0.5,0.1-0.8,0.3c-0.3,0.2-0.4,0.5-0.4,0.9
			c0,0.3,0.1,0.6,0.4,0.9c0.3,0.3,0.8,0.6,1.6,1c0.4,0.2,0.8,0.4,1.1,0.5c0.2,0.1,0.5,0.3,0.8,0.4c0.7,0.4,1.3,1,1.6,1.6
			c0.3,0.6,0.5,1.2,0.5,2c0,1.2-0.4,2.3-1.2,3.2c-1,1.1-2.2,1.6-3.9,1.6c-1.5,0-2.7-0.4-3.5-1.2C106,66,105.5,64.8,105.5,63.1"/>
		<polygon class="st0" points="129.4,52.9 129.4,67.7 125.8,67.7 125.8,62 122.1,62 122.1,67.7 118.4,67.7 118.4,52.9 122.1,52.9 
			122.1,58.5 125.8,58.5 125.8,52.9 		"/>
		<polygon class="st0" points="136.4,64.4 140.9,64.4 140.9,67.7 132.8,67.7 132.8,52.9 140.9,52.9 140.9,56.1 136.4,56.1 
			136.4,58.5 140.9,58.5 140.9,61.8 136.4,61.8 		"/>
		<polygon class="st0" points="147.8,64.4 152,64.4 152,67.7 144.2,67.7 144.2,52.9 147.8,52.9 		"/>
		<polygon class="st0" points="162.5,56.3 159.7,56.3 159.7,67.7 156.1,67.7 156.1,56.3 153.3,56.3 153.3,52.9 162.5,52.9 		"/>
		<polygon class="st0" points="168.2,64.4 172.6,64.4 172.6,67.7 164.6,67.7 164.6,52.9 172.6,52.9 172.6,56.1 168.2,56.1 
			168.2,58.5 172.6,58.5 172.6,61.8 168.2,61.8 		"/>
		<path class="st0" d="M179.6,56.2v3.6c1.3,0,2.1-0.1,2.6-0.4c0.5-0.3,0.8-0.7,0.8-1.4c0-0.7-0.2-1.1-0.6-1.3
			C182,56.3,181,56.2,179.6,56.2 M182.5,67.7l-2.9-4.8v4.8H176V52.9h4.9c1.5,0,2.7,0.3,3.6,0.8c0.8,0.4,1.4,1.1,1.7,1.9
			c0.3,0.7,0.4,1.4,0.4,2.3c0,1.2-0.3,2.2-0.9,3c-0.6,0.8-1.4,1.4-2.5,1.8l3.6,5.1H182.5z"/>
	</g>
</g>
</svg>
